<?xml version="1.0" encoding="UTF-8" standalone="no"?>
<!DOCTYPE svg PUBLIC "-//W3C//DTD SVG 1.1//EN"
 "http://www.w3.org/Graphics/SVG/1.1/DTD/svg11.dtd">
<!-- Generated by graphviz version 2.26.3 (20100126.1600)
 -->
<!-- Title: controllers_diagram Pages: 1 -->
<svg width="763pt" height="811pt"
 viewBox="0.00 0.00 763.00 811.00" xmlns="http://www.w3.org/2000/svg" xmlns:xlink="http://www.w3.org/1999/xlink">
<g id="graph1" class="graph" transform="scale(1 1) rotate(0) translate(4 807)">
<title>controllers_diagram</title>
<polygon fill="white" stroke="white" points="-4,5 -4,-807 760,-807 760,5 -4,5"/>
<!-- _diagram_info -->
<g id="node1" class="node"><title>_diagram_info</title>
<text text-anchor="start" x="9" y="-97.3" font-family="Times Roman,serif" font-size="13.00">Controllers diagram</text>
<text text-anchor="start" x="9" y="-81.3" font-family="Times Roman,serif" font-size="13.00">Date: Mar 04 2015 &#45; 09:27</text>
<text text-anchor="start" x="9" y="-65.3" font-family="Times Roman,serif" font-size="13.00">Generated by RailRoady 1.3.0</text>
<text text-anchor="start" x="9" y="-49.3" font-family="Times Roman,serif" font-size="13.00">http://railroady.prestonlee.com</text>
</g>
<!-- ProxyController -->
<g id="node2" class="node"><title>ProxyController</title>
<polyline fill="none" stroke="black" points="13,-421.5 123,-421.5 "/>
<path fill="none" stroke="black" d="M123,-421.5C129,-421.5 135,-427.5 135,-433.5"/>
<polyline fill="none" stroke="black" points="135,-433.5 135,-537.5 "/>
<path fill="none" stroke="black" d="M135,-537.5C135,-543.5 129,-549.5 123,-549.5"/>
<polyline fill="none" stroke="black" points="123,-549.5 13,-549.5 "/>
<path fill="none" stroke="black" d="M13,-549.5C7,-549.5 1,-543.5 1,-537.5"/>
<polyline fill="none" stroke="black" points="1,-537.5 1,-433.5 "/>
<path fill="none" stroke="black" d="M1,-433.5C1,-427.5 7,-421.5 13,-421.5"/>
<text text-anchor="middle" x="68" y="-532.9" font-family="Times Roman,serif" font-size="14.00">ProxyController</text>
<polyline fill="none" stroke="black" points="1,-525.5 135,-525.5 "/>
<text text-anchor="start" x="9" y="-508.9" font-family="Times Roman,serif" font-size="14.00">index</text>
<polyline fill="none" stroke="black" points="1,-501.5 135,-501.5 "/>
<polyline fill="none" stroke="black" points="1,-477.5 135,-477.5 "/>
<text text-anchor="start" x="9" y="-460.9" font-family="Times Roman,serif" font-size="14.00">_layout</text>
<text text-anchor="start" x="9" y="-444.9" font-family="Times Roman,serif" font-size="14.00">build_data_img_src</text>
<text text-anchor="start" x="9" y="-428.9" font-family="Times Roman,serif" font-size="14.00">download_image</text>
</g>
<!-- DashboardController -->
<g id="node3" class="node"><title>DashboardController</title>
<polyline fill="none" stroke="black" points="13,-281.5 130,-281.5 "/>
<path fill="none" stroke="black" d="M130,-281.5C136,-281.5 142,-287.5 142,-293.5"/>
<polyline fill="none" stroke="black" points="142,-293.5 142,-365.5 "/>
<path fill="none" stroke="black" d="M142,-365.5C142,-371.5 136,-377.5 130,-377.5"/>
<polyline fill="none" stroke="black" points="130,-377.5 13,-377.5 "/>
<path fill="none" stroke="black" d="M13,-377.5C7,-377.5 1,-371.5 1,-365.5"/>
<polyline fill="none" stroke="black" points="1,-365.5 1,-293.5 "/>
<path fill="none" stroke="black" d="M1,-293.5C1,-287.5 7,-281.5 13,-281.5"/>
<text text-anchor="middle" x="71.5" y="-360.9" font-family="Times Roman,serif" font-size="14.00">DashboardController</text>
<polyline fill="none" stroke="black" points="1,-353.5 142,-353.5 "/>
<text text-anchor="start" x="9" y="-336.9" font-family="Times Roman,serif" font-size="14.00">index</text>
<polyline fill="none" stroke="black" points="1,-329.5 142,-329.5 "/>
<polyline fill="none" stroke="black" points="1,-305.5 142,-305.5 "/>
<text text-anchor="start" x="9" y="-288.9" font-family="Times Roman,serif" font-size="14.00">_layout</text>
</g>
<!-- WelcomeController -->
<g id="node4" class="node"><title>WelcomeController</title>
<polyline fill="none" stroke="black" points="633,-201.5 742,-201.5 "/>
<path fill="none" stroke="black" d="M742,-201.5C748,-201.5 754,-207.5 754,-213.5"/>
<polyline fill="none" stroke="black" points="754,-213.5 754,-285.5 "/>
<path fill="none" stroke="black" d="M754,-285.5C754,-291.5 748,-297.5 742,-297.5"/>
<polyline fill="none" stroke="black" points="742,-297.5 633,-297.5 "/>
<path fill="none" stroke="black" d="M633,-297.5C627,-297.5 621,-291.5 621,-285.5"/>
<polyline fill="none" stroke="black" points="621,-285.5 621,-213.5 "/>
<path fill="none" stroke="black" d="M621,-213.5C621,-207.5 627,-201.5 633,-201.5"/>
<text text-anchor="middle" x="687.5" y="-280.9" font-family="Times Roman,serif" font-size="14.00">WelcomeController</text>
<polyline fill="none" stroke="black" points="621,-273.5 754,-273.5 "/>
<text text-anchor="start" x="629" y="-256.9" font-family="Times Roman,serif" font-size="14.00">index</text>
<polyline fill="none" stroke="black" points="621,-249.5 754,-249.5 "/>
<polyline fill="none" stroke="black" points="621,-225.5 754,-225.5 "/>
<text text-anchor="start" x="629" y="-208.9" font-family="Times Roman,serif" font-size="14.00">_layout</text>
</g>
<!-- FeedbackTargetsController -->
<g id="node5" class="node"><title>FeedbackTargetsController</title>
<polyline fill="none" stroke="black" points="193,-161.5 345,-161.5 "/>
<path fill="none" stroke="black" d="M345,-161.5C351,-161.5 357,-167.5 357,-173.5"/>
<polyline fill="none" stroke="black" points="357,-173.5 357,-469.5 "/>
<path fill="none" stroke="black" d="M357,-469.5C357,-475.5 351,-481.5 345,-481.5"/>
<polyline fill="none" stroke="black" points="345,-481.5 193,-481.5 "/>
<path fill="none" stroke="black" d="M193,-481.5C187,-481.5 181,-475.5 181,-469.5"/>
<polyline fill="none" stroke="black" points="181,-469.5 181,-173.5 "/>
<path fill="none" stroke="black" d="M181,-173.5C181,-167.5 187,-161.5 193,-161.5"/>
<text text-anchor="middle" x="269" y="-464.9" font-family="Times Roman,serif" font-size="14.00">FeedbackTargetsController</text>
<polyline fill="none" stroke="black" points="181,-457.5 357,-457.5 "/>
<text text-anchor="start" x="189" y="-440.9" font-family="Times Roman,serif" font-size="14.00">add_members</text>
<text text-anchor="start" x="189" y="-424.9" font-family="Times Roman,serif" font-size="14.00">create</text>
<text text-anchor="start" x="189" y="-408.9" font-family="Times Roman,serif" font-size="14.00">destroy</text>
<text text-anchor="start" x="189" y="-392.9" font-family="Times Roman,serif" font-size="14.00">edit</text>
<text text-anchor="start" x="189" y="-376.9" font-family="Times Roman,serif" font-size="14.00">index</text>
<text text-anchor="start" x="189" y="-360.9" font-family="Times Roman,serif" font-size="14.00">new</text>
<text text-anchor="start" x="189" y="-344.9" font-family="Times Roman,serif" font-size="14.00">remove_member</text>
<text text-anchor="start" x="189" y="-328.9" font-family="Times Roman,serif" font-size="14.00">search_for_members</text>
<text text-anchor="start" x="189" y="-312.9" font-family="Times Roman,serif" font-size="14.00">show</text>
<text text-anchor="start" x="189" y="-296.9" font-family="Times Roman,serif" font-size="14.00">update</text>
<polyline fill="none" stroke="black" points="181,-289.5 357,-289.5 "/>
<text text-anchor="start" x="189" y="-272.9" font-family="Times Roman,serif" font-size="14.00">render_code</text>
<text text-anchor="start" x="189" y="-256.9" font-family="Times Roman,serif" font-size="14.00">render_js_include</text>
<polyline fill="none" stroke="black" points="181,-249.5 357,-249.5 "/>
<text text-anchor="start" x="189" y="-232.9" font-family="Times Roman,serif" font-size="14.00">_layout</text>
<text text-anchor="start" x="189" y="-216.9" font-family="Times Roman,serif" font-size="14.00">define_breadcrumbs</text>
<text text-anchor="start" x="189" y="-200.9" font-family="Times Roman,serif" font-size="14.00">id_param</text>
<text text-anchor="start" x="189" y="-184.9" font-family="Times Roman,serif" font-size="14.00">feedback_target</text>
<text text-anchor="start" x="189" y="-168.9" font-family="Times Roman,serif" font-size="14.00">feedback_target_params</text>
</g>
<!-- SessionsController -->
<g id="node6" class="node"><title>SessionsController</title>
<polyline fill="none" stroke="black" points="213,-521.5 353,-521.5 "/>
<path fill="none" stroke="black" d="M353,-521.5C359,-521.5 365,-527.5 365,-533.5"/>
<polyline fill="none" stroke="black" points="365,-533.5 365,-733.5 "/>
<path fill="none" stroke="black" d="M365,-733.5C365,-739.5 359,-745.5 353,-745.5"/>
<polyline fill="none" stroke="black" points="353,-745.5 213,-745.5 "/>
<path fill="none" stroke="black" d="M213,-745.5C207,-745.5 201,-739.5 201,-733.5"/>
<polyline fill="none" stroke="black" points="201,-733.5 201,-533.5 "/>
<path fill="none" stroke="black" d="M201,-533.5C201,-527.5 207,-521.5 213,-521.5"/>
<text text-anchor="middle" x="283" y="-728.9" font-family="Times Roman,serif" font-size="14.00">SessionsController</text>
<polyline fill="none" stroke="black" points="201,-721.5 365,-721.5 "/>
<text text-anchor="start" x="209" y="-704.9" font-family="Times Roman,serif" font-size="14.00">create</text>
<text text-anchor="start" x="209" y="-688.9" font-family="Times Roman,serif" font-size="14.00">destroy</text>
<text text-anchor="start" x="209" y="-672.9" font-family="Times Roman,serif" font-size="14.00">new</text>
<text text-anchor="start" x="209" y="-656.9" font-family="Times Roman,serif" font-size="14.00">omniauth_failure</text>
<polyline fill="none" stroke="black" points="201,-649.5 365,-649.5 "/>
<text text-anchor="start" x="209" y="-632.9" font-family="Times Roman,serif" font-size="14.00">_layout_from_proc</text>
<polyline fill="none" stroke="black" points="201,-625.5 365,-625.5 "/>
<text text-anchor="start" x="209" y="-608.9" font-family="Times Roman,serif" font-size="14.00">_layout</text>
<text text-anchor="start" x="209" y="-592.9" font-family="Times Roman,serif" font-size="14.00">auth_hash</text>
<text text-anchor="start" x="209" y="-576.9" font-family="Times Roman,serif" font-size="14.00">define_user</text>
<text text-anchor="start" x="209" y="-560.9" font-family="Times Roman,serif" font-size="14.00">devise_authentication</text>
<text text-anchor="start" x="209" y="-544.9" font-family="Times Roman,serif" font-size="14.00">omniauth_authentication</text>
<text text-anchor="start" x="209" y="-528.9" font-family="Times Roman,serif" font-size="14.00">type_of_user</text>
</g>
<!-- ProtectedController -->
<g id="node7" class="node"><title>ProtectedController</title>
<polyline fill="none" stroke="black" points="33,-581.5 142,-581.5 "/>
<path fill="none" stroke="black" d="M142,-581.5C148,-581.5 154,-587.5 154,-593.5"/>
<polyline fill="none" stroke="black" points="154,-593.5 154,-713.5 "/>
<path fill="none" stroke="black" d="M154,-713.5C154,-719.5 148,-725.5 142,-725.5"/>
<polyline fill="none" stroke="black" points="142,-725.5 33,-725.5 "/>
<path fill="none" stroke="black" d="M33,-725.5C27,-725.5 21,-719.5 21,-713.5"/>
<polyline fill="none" stroke="black" points="21,-713.5 21,-593.5 "/>
<path fill="none" stroke="black" d="M21,-593.5C21,-587.5 27,-581.5 33,-581.5"/>
<text text-anchor="middle" x="87.5" y="-708.9" font-family="Times Roman,serif" font-size="14.00">ProtectedController</text>
<polyline fill="none" stroke="black" points="21,-701.5 154,-701.5 "/>
<text text-anchor="start" x="29" y="-684.9" font-family="Times Roman,serif" font-size="14.00">index</text>
<polyline fill="none" stroke="black" points="21,-677.5 154,-677.5 "/>
<text text-anchor="start" x="29" y="-660.9" font-family="Times Roman,serif" font-size="14.00">access_denied!</text>
<text text-anchor="start" x="29" y="-644.9" font-family="Times Roman,serif" font-size="14.00">authorize!</text>
<text text-anchor="start" x="29" y="-628.9" font-family="Times Roman,serif" font-size="14.00">can?</text>
<text text-anchor="start" x="29" y="-612.9" font-family="Times Roman,serif" font-size="14.00">current_user_can?</text>
<polyline fill="none" stroke="black" points="21,-605.5 154,-605.5 "/>
<text text-anchor="start" x="29" y="-588.9" font-family="Times Roman,serif" font-size="14.00">_layout</text>
</g>
<!-- UsersController -->
<g id="node8" class="node"><title>UsersController</title>
<polyline fill="none" stroke="black" points="253,-21.5 339,-21.5 "/>
<path fill="none" stroke="black" d="M339,-21.5C345,-21.5 351,-27.5 351,-33.5"/>
<polyline fill="none" stroke="black" points="351,-33.5 351,-105.5 "/>
<path fill="none" stroke="black" d="M351,-105.5C351,-111.5 345,-117.5 339,-117.5"/>
<polyline fill="none" stroke="black" points="339,-117.5 253,-117.5 "/>
<path fill="none" stroke="black" d="M253,-117.5C247,-117.5 241,-111.5 241,-105.5"/>
<polyline fill="none" stroke="black" points="241,-105.5 241,-33.5 "/>
<path fill="none" stroke="black" d="M241,-33.5C241,-27.5 247,-21.5 253,-21.5"/>
<text text-anchor="middle" x="296" y="-100.9" font-family="Times Roman,serif" font-size="14.00">UsersController</text>
<polyline fill="none" stroke="black" points="241,-93.5 351,-93.5 "/>
<text text-anchor="start" x="249" y="-76.9" font-family="Times Roman,serif" font-size="14.00">autocomplete</text>
<polyline fill="none" stroke="black" points="241,-69.5 351,-69.5 "/>
<polyline fill="none" stroke="black" points="241,-45.5 351,-45.5 "/>
<text text-anchor="start" x="249" y="-28.9" font-family="Times Roman,serif" font-size="14.00">_layout</text>
</g>
<!-- ApplicationController -->
<g id="node9" class="node"><title>ApplicationController</title>
<polyline fill="none" stroke="black" points="413,-1.5 602,-1.5 "/>
<path fill="none" stroke="black" d="M602,-1.5C608,-1.5 614,-7.5 614,-13.5"/>
<polyline fill="none" stroke="black" points="614,-13.5 614,-149.5 "/>
<path fill="none" stroke="black" d="M614,-149.5C614,-155.5 608,-161.5 602,-161.5"/>
<polyline fill="none" stroke="black" points="602,-161.5 413,-161.5 "/>
<path fill="none" stroke="black" d="M413,-161.5C407,-161.5 401,-155.5 401,-149.5"/>
<polyline fill="none" stroke="black" points="401,-149.5 401,-13.5 "/>
<path fill="none" stroke="black" d="M401,-13.5C401,-7.5 407,-1.5 413,-1.5"/>
<text text-anchor="middle" x="507.5" y="-144.9" font-family="Times Roman,serif" font-size="14.00">ApplicationController</text>
<polyline fill="none" stroke="black" points="401,-137.5 614,-137.5 "/>
<text text-anchor="start" x="409" y="-120.9" font-family="Times Roman,serif" font-size="14.00">breadcrumb</text>
<text text-anchor="start" x="409" y="-104.9" font-family="Times Roman,serif" font-size="14.00">define_locale</text>
<polyline fill="none" stroke="black" points="401,-97.5 614,-97.5 "/>
<text text-anchor="start" x="409" y="-80.9" font-family="Times Roman,serif" font-size="14.00">after_sign_in_path_for</text>
<text text-anchor="start" x="409" y="-64.9" font-family="Times Roman,serif" font-size="14.00">configure_permitted_parameters</text>
<text text-anchor="start" x="409" y="-48.9" font-family="Times Roman,serif" font-size="14.00">respond_error_json</text>
<text text-anchor="start" x="409" y="-32.9" font-family="Times Roman,serif" font-size="14.00">respond_success_json</text>
<polyline fill="none" stroke="black" points="401,-25.5 614,-25.5 "/>
<text text-anchor="start" x="409" y="-8.9" font-family="Times Roman,serif" font-size="14.00">_layout</text>
</g>
<!-- FeedbackFormsController -->
<g id="node10" class="node"><title>FeedbackFormsController</title>
<polyline fill="none" stroke="black" points="413,-201.5 569,-201.5 "/>
<path fill="none" stroke="black" d="M569,-201.5C575,-201.5 581,-207.5 581,-213.5"/>
<polyline fill="none" stroke="black" points="581,-213.5 581,-509.5 "/>
<path fill="none" stroke="black" d="M581,-509.5C581,-515.5 575,-521.5 569,-521.5"/>
<polyline fill="none" stroke="black" points="569,-521.5 413,-521.5 "/>
<path fill="none" stroke="black" d="M413,-521.5C407,-521.5 401,-515.5 401,-509.5"/>
<polyline fill="none" stroke="black" points="401,-509.5 401,-213.5 "/>
<path fill="none" stroke="black" d="M401,-213.5C401,-207.5 407,-201.5 413,-201.5"/>
<text text-anchor="middle" x="491" y="-504.9" font-family="Times Roman,serif" font-size="14.00">FeedbackFormsController</text>
<polyline fill="none" stroke="black" points="401,-497.5 581,-497.5 "/>
<text text-anchor="start" x="409" y="-480.9" font-family="Times Roman,serif" font-size="14.00">code</text>
<text text-anchor="start" x="409" y="-464.9" font-family="Times Roman,serif" font-size="14.00">create</text>
<text text-anchor="start" x="409" y="-448.9" font-family="Times Roman,serif" font-size="14.00">destroy</text>
<text text-anchor="start" x="409" y="-432.9" font-family="Times Roman,serif" font-size="14.00">edit</text>
<text text-anchor="start" x="409" y="-416.9" font-family="Times Roman,serif" font-size="14.00">index</text>
<text text-anchor="start" x="409" y="-400.9" font-family="Times Roman,serif" font-size="14.00">new</text>
<text text-anchor="start" x="409" y="-384.9" font-family="Times Roman,serif" font-size="14.00">show</text>
<text text-anchor="start" x="409" y="-368.9" font-family="Times Roman,serif" font-size="14.00">update</text>
<polyline fill="none" stroke="black" points="401,-361.5 581,-361.5 "/>
<text text-anchor="start" x="409" y="-344.9" font-family="Times Roman,serif" font-size="14.00">apply_pagination</text>
<text text-anchor="start" x="409" y="-328.9" font-family="Times Roman,serif" font-size="14.00">apply_scope</text>
<text text-anchor="start" x="409" y="-312.9" font-family="Times Roman,serif" font-size="14.00">find_feedback_for</text>
<text text-anchor="start" x="409" y="-296.9" font-family="Times Roman,serif" font-size="14.00">find_feedback_target</text>
<text text-anchor="start" x="409" y="-280.9" font-family="Times Roman,serif" font-size="14.00">user_applciation_id_param</text>
<polyline fill="none" stroke="black" points="401,-273.5 581,-273.5 "/>
<text text-anchor="start" x="409" y="-256.9" font-family="Times Roman,serif" font-size="14.00">_layout</text>
<text text-anchor="start" x="409" y="-240.9" font-family="Times Roman,serif" font-size="14.00">define_breadcrumbs_form</text>
<text text-anchor="start" x="409" y="-224.9" font-family="Times Roman,serif" font-size="14.00">define_breadcrumbs_index</text>
<text text-anchor="start" x="409" y="-208.9" font-family="Times Roman,serif" font-size="14.00">feedback_form_params</text>
</g>
<!-- FeedbacksController -->
<g id="node11" class="node"><title>FeedbacksController</title>
<polyline fill="none" stroke="black" points="533,-561.5 688,-561.5 "/>
<path fill="none" stroke="black" d="M688,-561.5C694,-561.5 700,-567.5 700,-573.5"/>
<polyline fill="none" stroke="black" points="700,-573.5 700,-789.5 "/>
<path fill="none" stroke="black" d="M700,-789.5C700,-795.5 694,-801.5 688,-801.5"/>
<polyline fill="none" stroke="black" points="688,-801.5 533,-801.5 "/>
<path fill="none" stroke="black" d="M533,-801.5C527,-801.5 521,-795.5 521,-789.5"/>
<polyline fill="none" stroke="black" points="521,-789.5 521,-573.5 "/>
<path fill="none" stroke="black" d="M521,-573.5C521,-567.5 527,-561.5 533,-561.5"/>
<text text-anchor="middle" x="610.5" y="-784.9" font-family="Times Roman,serif" font-size="14.00">FeedbacksController</text>
<polyline fill="none" stroke="black" points="521,-777.5 700,-777.5 "/>
<text text-anchor="start" x="529" y="-760.9" font-family="Times Roman,serif" font-size="14.00">add_comment</text>
<text text-anchor="start" x="529" y="-744.9" font-family="Times Roman,serif" font-size="14.00">archive</text>
<text text-anchor="start" x="529" y="-728.9" font-family="Times Roman,serif" font-size="14.00">comments</text>
<text text-anchor="start" x="529" y="-712.9" font-family="Times Roman,serif" font-size="14.00">destroy_comment</text>
<text text-anchor="start" x="529" y="-696.9" font-family="Times Roman,serif" font-size="14.00">index</text>
<text text-anchor="start" x="529" y="-680.9" font-family="Times Roman,serif" font-size="14.00">unarchive</text>
<polyline fill="none" stroke="black" points="521,-673.5 700,-673.5 "/>
<text text-anchor="start" x="529" y="-656.9" font-family="Times Roman,serif" font-size="14.00">feedback_from_params</text>
<text text-anchor="start" x="529" y="-640.9" font-family="Times Roman,serif" font-size="14.00">list_feedbacks</text>
<text text-anchor="start" x="529" y="-624.9" font-family="Times Roman,serif" font-size="14.00">load_resources</text>
<text text-anchor="start" x="529" y="-608.9" font-family="Times Roman,serif" font-size="14.00">user_applciation_id_param</text>
<text text-anchor="start" x="529" y="-592.9" font-family="Times Roman,serif" font-size="14.00">feedback_target</text>
<polyline fill="none" stroke="black" points="521,-585.5 700,-585.5 "/>
<text text-anchor="start" x="529" y="-568.9" font-family="Times Roman,serif" font-size="14.00">_layout</text>
</g>
</g>
</svg>
