<?xml version="1.0" encoding="UTF-8" standalone="no"?>
<!DOCTYPE svg PUBLIC "-//W3C//DTD SVG 1.1//EN"
 "http://www.w3.org/Graphics/SVG/1.1/DTD/svg11.dtd">
<!-- Generated by graphviz version 2.26.3 (20100126.1600)
 -->
<!-- Title: models_diagram Pages: 1 -->
<svg width="1538pt" height="404pt"
 viewBox="0.00 0.00 1538.00 404.00" xmlns="http://www.w3.org/2000/svg" xmlns:xlink="http://www.w3.org/1999/xlink">
<g id="graph1" class="graph" transform="scale(1 1) rotate(0) translate(4 400)">
<title>models_diagram</title>
<polygon fill="white" stroke="white" points="-4,5 -4,-400 1535,-400 1535,5 -4,5"/>
<!-- _diagram_info -->
<g id="node1" class="node"><title>_diagram_info</title>
<text text-anchor="start" x="7.5" y="-380.3" font-family="Times Roman,serif" font-size="13.00">Models diagram</text>
<text text-anchor="start" x="7.5" y="-364.3" font-family="Times Roman,serif" font-size="13.00">Date: Mar 04 2015 &#45; 09:27</text>
<text text-anchor="start" x="7.5" y="-348.3" font-family="Times Roman,serif" font-size="13.00">Generated by RailRoady 1.3.0</text>
<text text-anchor="start" x="7.5" y="-332.3" font-family="Times Roman,serif" font-size="13.00">http://railroady.prestonlee.com</text>
</g>
<!-- LdapUser -->
<g id="node2" class="node"><title>LdapUser</title>
<ellipse fill="none" stroke="black" cx="264" cy="-360" rx="49.8134" ry="18"/>
<text text-anchor="middle" x="264" y="-355.4" font-family="Times Roman,serif" font-size="14.00">LdapUser</text>
</g>
<!-- FeedbackTarget -->
<g id="node12" class="node"><title>FeedbackTarget</title>
<ellipse fill="none" stroke="black" cx="412" cy="-254" rx="73.9613" ry="18"/>
<text text-anchor="middle" x="412" y="-249.4" font-family="Times Roman,serif" font-size="14.00">FeedbackTarget</text>
</g>
<!-- LdapUser&#45;&gt;FeedbackTarget -->
<g id="edge2" class="edge"><title>LdapUser&#45;&gt;FeedbackTarget</title>
<path fill="none" stroke="#5956ce" d="M262.867,-333.647C263.659,-319.048 267.162,-301.567 278,-290 287.131,-280.254 313.492,-272.197 340.443,-266.194"/>
<ellipse fill="none" stroke="#5956ce" cx="262.771" cy="-337.844" rx="4" ry="4"/>
<polygon fill="#5956ce" stroke="#5956ce" points="340.589,-266.163 351.308,-268.477 345.479,-265.12 350.368,-264.076 350.368,-264.076 350.368,-264.076 345.479,-265.12 349.429,-259.675 340.589,-266.163 340.589,-266.163"/>
</g>
<!-- LdapUser&#45;&gt;FeedbackTarget -->
<g id="edge4" class="edge"><title>LdapUser&#45;&gt;FeedbackTarget</title>
<path fill="none" stroke="#167025" d="M280.077,-333.697C290.059,-319.181 304.015,-301.766 320,-290 330.136,-282.539 342.021,-276.397 353.819,-271.432"/>
<polygon fill="#167025" stroke="#167025" points="279.913,-333.945 270.641,-339.8 277.153,-338.115 274.393,-342.284 274.393,-342.284 274.393,-342.284 277.153,-338.115 278.146,-344.768 279.913,-333.945 279.913,-333.945"/>
<polygon fill="#167025" stroke="#167025" points="353.932,-271.387 364.887,-271.881 358.579,-269.543 363.227,-267.699 363.227,-267.699 363.227,-267.699 358.579,-269.543 361.567,-263.516 353.932,-271.387 353.932,-271.387"/>
<text text-anchor="middle" x="361.5" y="-293.4" font-family="Times Roman,serif" font-size="14.00">memberships</text>
</g>
<!-- FeedbackAttributeType -->
<g id="node3" class="node"><title>FeedbackAttributeType</title>
<ellipse fill="none" stroke="black" cx="756" cy="-360" rx="103.977" ry="18"/>
<text text-anchor="middle" x="756" y="-355.4" font-family="Times Roman,serif" font-size="14.00">FeedbackAttributeType</text>
</g>
<!-- Feedback -->
<g id="node4" class="node"><title>Feedback</title>
<ellipse fill="none" stroke="black" cx="503" cy="-92" rx="50.9823" ry="18"/>
<text text-anchor="middle" x="503" y="-87.4" font-family="Times Roman,serif" font-size="14.00">Feedback</text>
</g>
<!-- Comment -->
<g id="node14" class="node"><title>Comment</title>
<ellipse fill="none" stroke="black" cx="503" cy="-18" rx="51.1517" ry="18"/>
<text text-anchor="middle" x="503" y="-13.4" font-family="Times Roman,serif" font-size="14.00">Comment</text>
</g>
<!-- Feedback&#45;&gt;Comment -->
<g id="edge8" class="edge"><title>Feedback&#45;&gt;Comment</title>
<path fill="none" stroke="#4ab9d5" d="M496.527,-66.0884C496.2,-59.7234 496.163,-52.8759 496.415,-46.4005"/>
<ellipse fill="none" stroke="#4ab9d5" cx="496.825" cy="-70.0977" rx="4" ry="4"/>
<polygon fill="#4ab9d5" stroke="#4ab9d5" points="496.443,-45.9824 501.603,-36.3063 496.778,-40.9936 497.113,-36.0049 497.113,-36.0049 497.113,-36.0049 496.778,-40.9936 492.623,-35.7034 496.443,-45.9824 496.443,-45.9824"/>
</g>
<!-- FeedbackRequester -->
<g id="node20" class="node"><title>FeedbackRequester</title>
<ellipse fill="none" stroke="black" cx="664" cy="-18" rx="92.0728" ry="18"/>
<text text-anchor="middle" x="664" y="-13.4" font-family="Times Roman,serif" font-size="14.00">FeedbackRequester</text>
</g>
<!-- Feedback&#45;&gt;FeedbackRequester -->
<g id="edge6" class="edge"><title>Feedback&#45;&gt;FeedbackRequester</title>
<path fill="none" stroke="#5a08dc" d="M541.92,-74.1114C565.629,-63.2141 595.971,-49.2681 620.474,-38.0058"/>
<ellipse fill="none" stroke="#5a08dc" cx="538.059" cy="-75.8859" rx="4.00002" ry="4.00002"/>
<ellipse fill="#5a08dc" stroke="#5a08dc" cx="624.243" cy="-36.2736" rx="4.00002" ry="4.00002"/>
</g>
<!-- DataSetup -->
<g id="node5" class="node"><title>DataSetup</title>
<polygon fill="none" stroke="black" points="958,-378 878,-378 878,-342 958,-342 958,-378"/>
<text text-anchor="middle" x="918" y="-355.4" font-family="Times Roman,serif" font-size="14.00">DataSetup</text>
</g>
<!-- FeedbackAttributeTemplate -->
<g id="node6" class="node"><title>FeedbackAttributeTemplate</title>
<ellipse fill="none" stroke="black" cx="1098" cy="-360" rx="122.089" ry="18"/>
<text text-anchor="middle" x="1098" y="-355.4" font-family="Times Roman,serif" font-size="14.00">FeedbackAttributeTemplate</text>
</g>
<!-- FeedbackFormTemplate -->
<g id="node10" class="node"><title>FeedbackFormTemplate</title>
<ellipse fill="none" stroke="black" cx="1097" cy="-254" rx="110.015" ry="18"/>
<text text-anchor="middle" x="1097" y="-249.4" font-family="Times Roman,serif" font-size="14.00">FeedbackFormTemplate</text>
</g>
<!-- FeedbackAttributeTemplate&#45;&gt;FeedbackFormTemplate -->
<g id="edge10" class="edge"><title>FeedbackAttributeTemplate&#45;&gt;FeedbackFormTemplate</title>
<path fill="none" stroke="#ab5618" d="M1095.89,-331.833C1095.16,-319.065 1094.62,-303.774 1095,-290 1095.07,-287.571 1095.16,-285.052 1095.27,-282.524"/>
<polygon fill="#ab5618" stroke="#ab5618" points="1095.89,-331.896 1092.03,-342.16 1096.21,-336.886 1096.52,-341.876 1096.52,-341.876 1096.52,-341.876 1096.21,-336.886 1101.01,-341.592 1095.89,-331.896 1095.89,-331.896"/>
<polygon fill="#ab5618" stroke="#ab5618" points="1095.28,-282.293 1100.28,-272.533 1095.53,-277.3 1095.79,-272.306 1095.79,-272.306 1095.79,-272.306 1095.53,-277.3 1091.29,-272.079 1095.28,-282.293 1095.28,-282.293"/>
</g>
<!-- ExpressoUser -->
<g id="node7" class="node"><title>ExpressoUser</title>
<ellipse fill="none" stroke="black" cx="400" cy="-360" rx="67.7529" ry="18"/>
<text text-anchor="middle" x="400" y="-355.4" font-family="Times Roman,serif" font-size="14.00">ExpressoUser</text>
</g>
<!-- ExpressoUser&#45;&gt;FeedbackTarget -->
<g id="edge12" class="edge"><title>ExpressoUser&#45;&gt;FeedbackTarget</title>
<path fill="none" stroke="#f15269" d="M402.999,-333.511C404.755,-317.994 406.974,-298.394 408.769,-282.536"/>
<ellipse fill="none" stroke="#f15269" cx="402.54" cy="-337.562" rx="4.00001" ry="4.00001"/>
<polygon fill="#f15269" stroke="#f15269" points="408.809,-282.189 414.405,-272.758 409.371,-277.22 409.934,-272.252 409.934,-272.252 409.934,-272.252 409.371,-277.22 405.462,-271.746 408.809,-282.189 408.809,-282.189"/>
</g>
<!-- ExpressoUser&#45;&gt;FeedbackTarget -->
<g id="edge14" class="edge"><title>ExpressoUser&#45;&gt;FeedbackTarget</title>
<path fill="none" stroke="#2421e0" d="M403.86,-331.602C404.933,-323.352 406.061,-314.322 407,-306 407.867,-298.317 408.711,-289.985 409.451,-282.287"/>
<polygon fill="#2421e0" stroke="#2421e0" points="403.859,-331.61 398.087,-340.934 403.204,-336.567 402.549,-341.524 402.549,-341.524 402.549,-341.524 403.204,-336.567 407.01,-342.114 403.859,-331.61 403.859,-331.61"/>
<polygon fill="#2421e0" stroke="#2421e0" points="409.454,-282.261 414.869,-272.726 409.921,-277.283 410.389,-272.305 410.389,-272.305 410.389,-272.305 409.921,-277.283 405.909,-271.884 409.454,-282.261 409.454,-282.261"/>
<text text-anchor="middle" x="450.5" y="-293.4" font-family="Times Roman,serif" font-size="14.00">memberships</text>
</g>
<!-- User -->
<g id="node8" class="node"><title>User</title>
<ellipse fill="none" stroke="black" cx="379" cy="-166" rx="30.1869" ry="18"/>
<text text-anchor="middle" x="379" y="-161.4" font-family="Times Roman,serif" font-size="14.00">User</text>
</g>
<!-- User&#45;&gt;FeedbackTarget -->
<g id="edge16" class="edge"><title>User&#45;&gt;FeedbackTarget</title>
<path fill="none" stroke="#b6880e" d="M384.76,-191.894C386.959,-200.346 389.736,-209.691 393,-218 394.151,-220.931 395.478,-223.933 396.883,-226.891"/>
<ellipse fill="none" stroke="#b6880e" cx="383.796" cy="-188.009" rx="4.00001" ry="4.00001"/>
<polygon fill="#b6880e" stroke="#b6880e" points="397.007,-227.136 397.51,-238.09 399.266,-231.596 401.525,-236.057 401.525,-236.057 401.525,-236.057 399.266,-231.596 405.539,-234.024 397.007,-227.136 397.007,-227.136"/>
</g>
<!-- User&#45;&gt;FeedbackTarget -->
<g id="edge18" class="edge"><title>User&#45;&gt;FeedbackTarget</title>
<path fill="none" stroke="#253963" d="M389.166,-193.109C393.1,-203.6 397.601,-215.602 401.56,-226.161"/>
<polygon fill="#253963" stroke="#253963" points="389.115,-192.973 389.817,-182.03 387.359,-188.291 385.604,-183.61 385.604,-183.61 385.604,-183.61 387.359,-188.291 381.39,-185.19 389.115,-192.973 389.115,-192.973"/>
<polygon fill="#253963" stroke="#253963" points="401.651,-226.403 400.949,-237.346 403.407,-231.085 405.162,-235.766 405.162,-235.766 405.162,-235.766 403.407,-231.085 409.376,-234.186 401.651,-226.403 401.651,-226.403"/>
<text text-anchor="middle" x="440.5" y="-205.4" font-family="Times Roman,serif" font-size="14.00">memberships</text>
</g>
<!-- Ability -->
<g id="node9" class="node"><title>Ability</title>
<polygon fill="none" stroke="black" points="1292,-378 1238,-378 1238,-342 1292,-342 1292,-378"/>
<text text-anchor="middle" x="1265" y="-355.4" font-family="Times Roman,serif" font-size="14.00">Ability</text>
</g>
<!-- FeedbackFormTemplate&#45;&gt;FeedbackAttributeTemplate -->
<g id="edge20" class="edge"><title>FeedbackFormTemplate&#45;&gt;FeedbackAttributeTemplate</title>
<path fill="none" stroke="#78cb4f" d="M1097.25,-280.402C1097.4,-295.923 1097.58,-315.551 1097.73,-331.433"/>
<ellipse fill="none" stroke="#78cb4f" cx="1097.21" cy="-276.252" rx="4" ry="4"/>
<polygon fill="#78cb4f" stroke="#78cb4f" points="1097.73,-331.537 1093.33,-341.579 1097.78,-336.536 1097.83,-341.536 1097.83,-341.536 1097.83,-341.536 1097.78,-336.536 1102.33,-341.494 1097.73,-331.537 1097.73,-331.537"/>
<text text-anchor="middle" x="1156" y="-293.4" font-family="Times Roman,serif" font-size="14.00">feedback_attributes</text>
</g>
<!-- FeedbackAttribute -->
<g id="node11" class="node"><title>FeedbackAttribute</title>
<ellipse fill="none" stroke="black" cx="656" cy="-92" rx="84.0232" ry="18"/>
<text text-anchor="middle" x="656" y="-87.4" font-family="Times Roman,serif" font-size="14.00">FeedbackAttribute</text>
</g>
<!-- FeedbackForm -->
<g id="node15" class="node"><title>FeedbackForm</title>
<ellipse fill="none" stroke="black" cx="636" cy="-166" rx="71.949" ry="18"/>
<text text-anchor="middle" x="636" y="-161.4" font-family="Times Roman,serif" font-size="14.00">FeedbackForm</text>
</g>
<!-- FeedbackAttribute&#45;&gt;FeedbackForm -->
<g id="edge22" class="edge"><title>FeedbackAttribute&#45;&gt;FeedbackForm</title>
<path fill="none" stroke="#f0a4a9" d="M655.035,-119.857C653.633,-125.988 651.873,-132.476 649.953,-138.59"/>
<polygon fill="#f0a4a9" stroke="#f0a4a9" points="655.044,-119.808 661.432,-110.894 656.033,-114.906 657.021,-110.005 657.021,-110.005 657.021,-110.005 656.033,-114.906 652.61,-109.115 655.044,-119.808 655.044,-119.808"/>
<polygon fill="#f0a4a9" stroke="#f0a4a9" points="649.942,-138.62 642.46,-146.637 648.331,-143.353 646.72,-148.087 646.72,-148.087 646.72,-148.087 648.331,-143.353 650.98,-149.537 649.942,-138.62 649.942,-138.62"/>
</g>
<!-- FeedbackTarget&#45;&gt;Feedback -->
<g id="edge28" class="edge"><title>FeedbackTarget&#45;&gt;Feedback</title>
<path fill="none" stroke="#e243bc" d="M465.849,-235.855C473.616,-231.137 480.744,-225.268 486,-218 506.553,-189.577 508.14,-147.892 506.388,-120.36"/>
<ellipse fill="none" stroke="#e243bc" cx="462.075" cy="-237.938" rx="4.00002" ry="4.00002"/>
<polygon fill="#e243bc" stroke="#e243bc" points="506.373,-120.175 510.035,-109.838 505.962,-115.192 505.55,-110.209 505.55,-110.209 505.55,-110.209 505.962,-115.192 501.066,-110.579 506.373,-120.175 506.373,-120.175"/>
</g>
<!-- FeedbackTarget&#45;&gt;User -->
<g id="edge24" class="edge"><title>FeedbackTarget&#45;&gt;User</title>
<path fill="none" stroke="#881938" d="M347.469,-237.252C338.992,-232.382 331.391,-226.101 326,-218 316.841,-204.237 330.161,-191.213 345.735,-181.642"/>
<polygon fill="#881938" stroke="#881938" points="347.632,-237.334 354.539,-245.852 352.098,-239.583 356.563,-241.833 356.563,-241.833 356.563,-241.833 352.098,-239.583 358.588,-237.814 347.632,-237.334 347.632,-237.334"/>
<polygon fill="#881938" stroke="#881938" points="345.784,-181.614 356.704,-180.615 350.137,-179.156 354.491,-176.697 354.491,-176.697 354.491,-176.697 350.137,-179.156 352.278,-172.779 345.784,-181.614 345.784,-181.614"/>
<text text-anchor="middle" x="355" y="-205.4" font-family="Times Roman,serif" font-size="14.00">members</text>
</g>
<!-- FeedbackTarget&#45;&gt;FeedbackForm -->
<g id="edge26" class="edge"><title>FeedbackTarget&#45;&gt;FeedbackForm</title>
<path fill="none" stroke="#ea6ce1" d="M467.271,-237.726C485.504,-231.963 505.775,-225.128 524,-218 547.72,-208.723 573.545,-196.857 594.413,-186.803"/>
<ellipse fill="none" stroke="#ea6ce1" cx="463.411" cy="-238.934" rx="4.00001" ry="4.00001"/>
<polygon fill="#ea6ce1" stroke="#ea6ce1" points="594.632,-186.697 605.594,-186.375 599.13,-184.512 603.627,-182.327 603.627,-182.327 603.627,-182.327 599.13,-184.512 601.661,-178.28 594.632,-186.697 594.632,-186.697"/>
</g>
<!-- RegisteredUser -->
<g id="node13" class="node"><title>RegisteredUser</title>
<ellipse fill="none" stroke="black" cx="560" cy="-360" rx="73.7902" ry="18"/>
<text text-anchor="middle" x="560" y="-355.4" font-family="Times Roman,serif" font-size="14.00">RegisteredUser</text>
</g>
<!-- RegisteredUser&#45;&gt;FeedbackTarget -->
<g id="edge30" class="edge"><title>RegisteredUser&#45;&gt;FeedbackTarget</title>
<path fill="none" stroke="#46c40c" d="M542.155,-335.725C530.353,-320.991 513.813,-302.65 496,-290 486.595,-283.321 475.757,-277.532 465.059,-272.666"/>
<ellipse fill="none" stroke="#46c40c" cx="544.765" cy="-339.059" rx="4.00002" ry="4.00002"/>
<polygon fill="#46c40c" stroke="#46c40c" points="464.909,-272.602 457.52,-264.499 460.321,-270.615 455.733,-268.629 455.733,-268.629 455.733,-268.629 460.321,-270.615 453.945,-272.758 464.909,-272.602 464.909,-272.602"/>
</g>
<!-- RegisteredUser&#45;&gt;FeedbackTarget -->
<g id="edge32" class="edge"><title>RegisteredUser&#45;&gt;FeedbackTarget</title>
<path fill="none" stroke="#04b299" d="M549.529,-332.539C542.774,-318.091 532.672,-301.119 519,-290 507.572,-280.706 493.631,-273.767 479.639,-268.6"/>
<polygon fill="#04b299" stroke="#04b299" points="549.674,-332.87 549.55,-343.835 551.674,-337.452 553.674,-342.035 553.674,-342.035 553.674,-342.035 551.674,-337.452 557.799,-340.234 549.674,-332.87 549.674,-332.87"/>
<polygon fill="#04b299" stroke="#04b299" points="479.437,-268.531 471.428,-261.04 474.706,-266.915 469.974,-265.299 469.974,-265.299 469.974,-265.299 474.706,-266.915 468.519,-269.557 479.437,-268.531 479.437,-268.531"/>
<text text-anchor="middle" x="574.5" y="-293.4" font-family="Times Roman,serif" font-size="14.00">memberships</text>
</g>
<!-- Comment&#45;&gt;Feedback -->
<g id="edge34" class="edge"><title>Comment&#45;&gt;Feedback</title>
<path fill="none" stroke="#324c61" d="M509.572,-46.0786C509.81,-51.9425 509.809,-58.1243 509.57,-63.9858"/>
<polygon fill="#324c61" stroke="#324c61" points="509.566,-45.9818 513.377,-35.6995 509.227,-40.9933 508.887,-36.0049 508.887,-36.0049 508.887,-36.0049 509.227,-40.9933 504.398,-36.3102 509.566,-45.9818 509.566,-45.9818"/>
<polygon fill="#324c61" stroke="#324c61" points="509.561,-64.11 504.389,-73.7792 509.22,-69.0983 508.878,-74.0867 508.878,-74.0867 508.878,-74.0867 509.22,-69.0983 513.368,-74.3941 509.561,-64.11 509.561,-64.11"/>
</g>
<!-- FeedbackForm&#45;&gt;Feedback -->
<g id="edge38" class="edge"><title>FeedbackForm&#45;&gt;Feedback</title>
<path fill="none" stroke="#89b52f" d="M599.339,-145.602C580.67,-135.215 558.043,-122.625 539.41,-112.258"/>
<ellipse fill="none" stroke="#89b52f" cx="602.988" cy="-147.632" rx="4.00002" ry="4.00002"/>
<polygon fill="#89b52f" stroke="#89b52f" points="539.357,-112.229 532.806,-103.434 534.987,-109.798 530.618,-107.367 530.618,-107.367 530.618,-107.367 534.987,-109.798 528.43,-111.299 539.357,-112.229 539.357,-112.229"/>
</g>
<!-- FeedbackForm&#45;&gt;FeedbackAttribute -->
<g id="edge36" class="edge"><title>FeedbackForm&#45;&gt;FeedbackAttribute</title>
<path fill="none" stroke="#9baf7f" d="M636.597,-139.782C638.02,-133.331 639.867,-126.402 641.902,-119.877"/>
<ellipse fill="none" stroke="#9baf7f" cx="635.805" cy="-143.784" rx="4.00001" ry="4.00001"/>
<polygon fill="#9baf7f" stroke="#9baf7f" points="642.011,-119.554 649.48,-111.525 643.614,-114.818 645.218,-110.082 645.218,-110.082 645.218,-110.082 643.614,-114.818 640.956,-108.639 642.011,-119.554 642.011,-119.554"/>
</g>
<!-- FeedbackAttributeModel -->
<g id="node16" class="node"><title>FeedbackAttributeModel</title>
<ellipse fill="none" stroke="black" cx="1420" cy="-360" rx="110.015" ry="18"/>
<text text-anchor="middle" x="1420" y="-355.4" font-family="Times Roman,serif" font-size="14.00">FeedbackAttributeModel</text>
</g>
</g>
</svg>
