<?xml version="1.0" encoding="UTF-8" standalone="no"?>
<!DOCTYPE svg PUBLIC "-//W3C//DTD SVG 1.1//EN"
 "http://www.w3.org/Graphics/SVG/1.1/DTD/svg11.dtd">
<!-- Generated by graphviz version 2.26.3 (20100126.1600)
 -->
<!-- Title: models_diagram Pages: 1 -->
<svg width="1576pt" height="1174pt"
 viewBox="0.00 0.00 1576.00 1174.00" xmlns="http://www.w3.org/2000/svg" xmlns:xlink="http://www.w3.org/1999/xlink">
<g id="graph1" class="graph" transform="scale(1 1) rotate(0) translate(4 1170)">
<title>models_diagram</title>
<polygon fill="white" stroke="white" points="-4,5 -4,-1170 1573,-1170 1573,5 -4,5"/>
<!-- _diagram_info -->
<g id="node1" class="node"><title>_diagram_info</title>
<text text-anchor="start" x="7.5" y="-1033.3" font-family="Times Roman,serif" font-size="13.00">Models diagram</text>
<text text-anchor="start" x="7.5" y="-1017.3" font-family="Times Roman,serif" font-size="13.00">Date: Mar 04 2015 &#45; 09:27</text>
<text text-anchor="start" x="7.5" y="-1001.3" font-family="Times Roman,serif" font-size="13.00">Generated by RailRoady 1.3.0</text>
<text text-anchor="start" x="7.5" y="-985.3" font-family="Times Roman,serif" font-size="13.00">http://railroady.prestonlee.com</text>
</g>
<!-- LdapUser -->
<g id="node2" class="node"><title>LdapUser</title>
<polyline fill="none" stroke="black" points="226,-901 390,-901 "/>
<path fill="none" stroke="black" d="M390,-901C396,-901 402,-907 402,-913"/>
<polyline fill="none" stroke="black" points="402,-913 402,-1113 "/>
<path fill="none" stroke="black" d="M402,-1113C402,-1119 396,-1125 390,-1125"/>
<polyline fill="none" stroke="black" points="390,-1125 226,-1125 "/>
<path fill="none" stroke="black" d="M226,-1125C220,-1125 214,-1119 214,-1113"/>
<polyline fill="none" stroke="black" points="214,-1113 214,-913 "/>
<path fill="none" stroke="black" d="M214,-913C214,-907 220,-901 226,-901"/>
<text text-anchor="middle" x="308" y="-1108.4" font-family="Times Roman,serif" font-size="14.00">LdapUser</text>
<polyline fill="none" stroke="black" points="214,-1101 402,-1101 "/>
<text text-anchor="start" x="222" y="-1084.4" font-family="Times Roman,serif" font-size="14.00">_id :BSON::ObjectId</text>
<text text-anchor="start" x="222" y="-1068.4" font-family="Times Roman,serif" font-size="14.00">_type :String</text>
<text text-anchor="start" x="222" y="-1052.4" font-family="Times Roman,serif" font-size="14.00">blocked :Mongoid::Boolean</text>
<text text-anchor="start" x="222" y="-1036.4" font-family="Times Roman,serif" font-size="14.00">current_sign_in_at :Time</text>
<text text-anchor="start" x="222" y="-1020.4" font-family="Times Roman,serif" font-size="14.00">current_sign_in_ip :String</text>
<text text-anchor="start" x="222" y="-1004.4" font-family="Times Roman,serif" font-size="14.00">email :String</text>
<text text-anchor="start" x="222" y="-988.4" font-family="Times Roman,serif" font-size="14.00">last_sign_in_at :Time</text>
<text text-anchor="start" x="222" y="-972.4" font-family="Times Roman,serif" font-size="14.00">last_sign_in_ip :String</text>
<text text-anchor="start" x="222" y="-956.4" font-family="Times Roman,serif" font-size="14.00">membership_ids :Array</text>
<text text-anchor="start" x="222" y="-940.4" font-family="Times Roman,serif" font-size="14.00">remember_created_at :Time</text>
<text text-anchor="start" x="222" y="-924.4" font-family="Times Roman,serif" font-size="14.00">sign_in_count :Integer</text>
<text text-anchor="start" x="222" y="-908.4" font-family="Times Roman,serif" font-size="14.00">username :String</text>
</g>
<!-- FeedbackTarget -->
<g id="node12" class="node"><title>FeedbackTarget</title>
<polyline fill="none" stroke="black" points="411.5,-647 602.5,-647 "/>
<path fill="none" stroke="black" d="M602.5,-647C608.5,-647 614.5,-653 614.5,-659"/>
<polyline fill="none" stroke="black" points="614.5,-659 614.5,-795 "/>
<path fill="none" stroke="black" d="M614.5,-795C614.5,-801 608.5,-807 602.5,-807"/>
<polyline fill="none" stroke="black" points="602.5,-807 411.5,-807 "/>
<path fill="none" stroke="black" d="M411.5,-807C405.5,-807 399.5,-801 399.5,-795"/>
<polyline fill="none" stroke="black" points="399.5,-795 399.5,-659 "/>
<path fill="none" stroke="black" d="M399.5,-659C399.5,-653 405.5,-647 411.5,-647"/>
<text text-anchor="middle" x="507" y="-790.4" font-family="Times Roman,serif" font-size="14.00">FeedbackTarget</text>
<polyline fill="none" stroke="black" points="399.5,-783 614.5,-783 "/>
<text text-anchor="start" x="407.5" y="-766.4" font-family="Times Roman,serif" font-size="14.00">_id :BSON::ObjectId</text>
<text text-anchor="start" x="407.5" y="-750.4" font-family="Times Roman,serif" font-size="14.00">_slugs :Array</text>
<text text-anchor="start" x="407.5" y="-734.4" font-family="Times Roman,serif" font-size="14.00">authentication_token :String</text>
<text text-anchor="start" x="407.5" y="-718.4" font-family="Times Roman,serif" font-size="14.00">default_feedback_form_id :String</text>
<text text-anchor="start" x="407.5" y="-702.4" font-family="Times Roman,serif" font-size="14.00">deleted_at :Time</text>
<text text-anchor="start" x="407.5" y="-686.4" font-family="Times Roman,serif" font-size="14.00">member_ids :Array</text>
<text text-anchor="start" x="407.5" y="-670.4" font-family="Times Roman,serif" font-size="14.00">name :String</text>
<text text-anchor="start" x="407.5" y="-654.4" font-family="Times Roman,serif" font-size="14.00">owner_id :Object</text>
</g>
<!-- LdapUser&#45;&gt;FeedbackTarget -->
<g id="edge2" class="edge"><title>LdapUser&#45;&gt;FeedbackTarget</title>
<path fill="none" stroke="#d65c55" d="M320.408,-892.708C326.736,-869.14 336.124,-845.662 350,-826 361.076,-810.306 375.506,-796.554 391.127,-784.689"/>
<ellipse fill="none" stroke="#d65c55" cx="319.362" cy="-896.822" rx="4.00001" ry="4.00001"/>
<polygon fill="#d65c55" stroke="#d65c55" points="391.316,-784.551 402.047,-782.291 395.355,-781.604 399.394,-778.656 399.394,-778.656 399.394,-778.656 395.355,-781.604 396.741,-775.021 391.316,-784.551 391.316,-784.551"/>
</g>
<!-- LdapUser&#45;&gt;FeedbackTarget -->
<g id="edge4" class="edge"><title>LdapUser&#45;&gt;FeedbackTarget</title>
<path fill="none" stroke="#eda6b2" d="M374.192,-892.283C387.894,-869.733 402.808,-846.75 418,-826 420.644,-822.388 423.398,-818.757 426.229,-815.129"/>
<polygon fill="#eda6b2" stroke="#eda6b2" points="374.162,-892.333 365.147,-898.576 371.582,-896.616 369.002,-900.899 369.002,-900.899 369.002,-900.899 371.582,-896.616 372.856,-903.221 374.162,-892.333 374.162,-892.333"/>
<polygon fill="#eda6b2" stroke="#eda6b2" points="426.311,-815.025 436.06,-810.003 429.425,-811.113 432.539,-807.201 432.539,-807.201 432.539,-807.201 429.425,-811.113 429.018,-804.398 426.311,-815.025 426.311,-815.025"/>
<text text-anchor="middle" x="459.5" y="-829.4" font-family="Times Roman,serif" font-size="14.00">memberships</text>
</g>
<!-- FeedbackAttributeType -->
<g id="node3" class="node"><title>FeedbackAttributeType</title>
<polyline fill="none" stroke="black" points="855.5,-973 986.5,-973 "/>
<path fill="none" stroke="black" d="M986.5,-973C992.5,-973 998.5,-979 998.5,-985"/>
<polyline fill="none" stroke="black" points="998.5,-985 998.5,-1041 "/>
<path fill="none" stroke="black" d="M998.5,-1041C998.5,-1047 992.5,-1053 986.5,-1053"/>
<polyline fill="none" stroke="black" points="986.5,-1053 855.5,-1053 "/>
<path fill="none" stroke="black" d="M855.5,-1053C849.5,-1053 843.5,-1047 843.5,-1041"/>
<polyline fill="none" stroke="black" points="843.5,-1041 843.5,-985 "/>
<path fill="none" stroke="black" d="M843.5,-985C843.5,-979 849.5,-973 855.5,-973"/>
<text text-anchor="middle" x="921" y="-1036.4" font-family="Times Roman,serif" font-size="14.00">FeedbackAttributeType</text>
<polyline fill="none" stroke="black" points="843.5,-1029 998.5,-1029 "/>
<text text-anchor="start" x="851.5" y="-1012.4" font-family="Times Roman,serif" font-size="14.00">_id :BSON::ObjectId</text>
<text text-anchor="start" x="851.5" y="-996.4" font-family="Times Roman,serif" font-size="14.00">description :String</text>
<text text-anchor="start" x="851.5" y="-980.4" font-family="Times Roman,serif" font-size="14.00">name :String</text>
</g>
<!-- Feedback -->
<g id="node4" class="node"><title>Feedback</title>
<polyline fill="none" stroke="black" points="517,-137 681,-137 "/>
<path fill="none" stroke="black" d="M681,-137C687,-137 693,-143 693,-149"/>
<polyline fill="none" stroke="black" points="693,-149 693,-317 "/>
<path fill="none" stroke="black" d="M693,-317C693,-323 687,-329 681,-329"/>
<polyline fill="none" stroke="black" points="681,-329 517,-329 "/>
<path fill="none" stroke="black" d="M517,-329C511,-329 505,-323 505,-317"/>
<polyline fill="none" stroke="black" points="505,-317 505,-149 "/>
<path fill="none" stroke="black" d="M505,-149C505,-143 511,-137 517,-137"/>
<text text-anchor="middle" x="599" y="-312.4" font-family="Times Roman,serif" font-size="14.00">Feedback</text>
<polyline fill="none" stroke="black" points="505,-305 693,-305 "/>
<text text-anchor="start" x="513" y="-288.4" font-family="Times Roman,serif" font-size="14.00">_id :BSON::ObjectId</text>
<text text-anchor="start" x="513" y="-272.4" font-family="Times Roman,serif" font-size="14.00">active :Mongoid::Boolean</text>
<text text-anchor="start" x="513" y="-256.4" font-family="Times Roman,serif" font-size="14.00">category :String</text>
<text text-anchor="start" x="513" y="-240.4" font-family="Times Roman,serif" font-size="14.00">created_at :Time</text>
<text text-anchor="start" x="513" y="-224.4" font-family="Times Roman,serif" font-size="14.00">deleted_at :Time</text>
<text text-anchor="start" x="513" y="-208.4" font-family="Times Roman,serif" font-size="14.00">feedback_form_id :Object</text>
<text text-anchor="start" x="513" y="-192.4" font-family="Times Roman,serif" font-size="14.00">screenshot_path :String</text>
<text text-anchor="start" x="513" y="-176.4" font-family="Times Roman,serif" font-size="14.00">server_date_time :DateTime</text>
<text text-anchor="start" x="513" y="-160.4" font-family="Times Roman,serif" font-size="14.00">text :String</text>
<text text-anchor="start" x="513" y="-144.4" font-family="Times Roman,serif" font-size="14.00">feedback_target_id :Object</text>
</g>
<!-- Comment -->
<g id="node14" class="node"><title>Comment</title>
<polyline fill="none" stroke="black" points="541,-1 657,-1 "/>
<path fill="none" stroke="black" d="M657,-1C663,-1 669,-7 669,-13"/>
<polyline fill="none" stroke="black" points="669,-13 669,-85 "/>
<path fill="none" stroke="black" d="M669,-85C669,-91 663,-97 657,-97"/>
<polyline fill="none" stroke="black" points="657,-97 541,-97 "/>
<path fill="none" stroke="black" d="M541,-97C535,-97 529,-91 529,-85"/>
<polyline fill="none" stroke="black" points="529,-85 529,-13 "/>
<path fill="none" stroke="black" d="M529,-13C529,-7 535,-1 541,-1"/>
<text text-anchor="middle" x="599" y="-80.4" font-family="Times Roman,serif" font-size="14.00">Comment</text>
<polyline fill="none" stroke="black" points="529,-73 669,-73 "/>
<text text-anchor="start" x="537" y="-56.4" font-family="Times Roman,serif" font-size="14.00">_id :BSON::ObjectId</text>
<text text-anchor="start" x="537" y="-40.4" font-family="Times Roman,serif" font-size="14.00">created_at :Time</text>
<text text-anchor="start" x="537" y="-24.4" font-family="Times Roman,serif" font-size="14.00">text :String</text>
<text text-anchor="start" x="537" y="-8.4" font-family="Times Roman,serif" font-size="14.00">user_id :Object</text>
</g>
<!-- Feedback&#45;&gt;Comment -->
<g id="edge8" class="edge"><title>Feedback&#45;&gt;Comment</title>
<path fill="none" stroke="#68f1df" d="M592.302,-128.914C592.366,-121.522 592.489,-114.235 592.671,-107.25"/>
<ellipse fill="none" stroke="#68f1df" cx="592.279" cy="-132.958" rx="4" ry="4"/>
<polygon fill="#68f1df" stroke="#68f1df" points="592.671,-107.25 597.478,-97.3937 592.825,-102.252 592.98,-97.2546 592.98,-97.2546 592.98,-97.2546 592.825,-102.252 588.482,-97.1156 592.671,-107.25 592.671,-107.25"/>
</g>
<!-- FeedbackRequester -->
<g id="node20" class="node"><title>FeedbackRequester</title>
<ellipse fill="none" stroke="black" cx="779" cy="-49" rx="92.0728" ry="18"/>
<text text-anchor="middle" x="779" y="-44.4" font-family="Times Roman,serif" font-size="14.00">FeedbackRequester</text>
</g>
<!-- Feedback&#45;&gt;FeedbackRequester -->
<g id="edge6" class="edge"><title>Feedback&#45;&gt;FeedbackRequester</title>
<path fill="none" stroke="#c6400e" d="M698.789,-130.994C720.151,-109.156 740.77,-88.0797 755.752,-72.7644"/>
<ellipse fill="none" stroke="#c6400e" cx="695.751" cy="-134.099" rx="4.00002" ry="4.00002"/>
<ellipse fill="#c6400e" stroke="#c6400e" cx="758.612" cy="-69.841" rx="4.00002" ry="4.00002"/>
</g>
<!-- DataSetup -->
<g id="node5" class="node"><title>DataSetup</title>
<polygon fill="none" stroke="black" points="1016,-989 1016,-1037 1096,-1037 1096,-989 1016,-989"/>
<text text-anchor="middle" x="1056" y="-1020.4" font-family="Times Roman,serif" font-size="14.00">DataSetup</text>
<polyline fill="none" stroke="black" points="1016,-1013 1096,-1013 "/>
<text text-anchor="middle" x="1056" y="-996.4" font-family="Times Roman,serif" font-size="14.00"> </text>
</g>
<!-- FeedbackAttributeTemplate -->
<g id="node6" class="node"><title>FeedbackAttributeTemplate</title>
<polyline fill="none" stroke="black" points="1125.5,-941 1284.5,-941 "/>
<path fill="none" stroke="black" d="M1284.5,-941C1290.5,-941 1296.5,-947 1296.5,-953"/>
<polyline fill="none" stroke="black" points="1296.5,-953 1296.5,-1073 "/>
<path fill="none" stroke="black" d="M1296.5,-1073C1296.5,-1079 1290.5,-1085 1284.5,-1085"/>
<polyline fill="none" stroke="black" points="1284.5,-1085 1125.5,-1085 "/>
<path fill="none" stroke="black" d="M1125.5,-1085C1119.5,-1085 1113.5,-1079 1113.5,-1073"/>
<polyline fill="none" stroke="black" points="1113.5,-1073 1113.5,-953 "/>
<path fill="none" stroke="black" d="M1113.5,-953C1113.5,-947 1119.5,-941 1125.5,-941"/>
<text text-anchor="middle" x="1205" y="-1068.4" font-family="Times Roman,serif" font-size="14.00">FeedbackAttributeTemplate</text>
<polyline fill="none" stroke="black" points="1113.5,-1061 1296.5,-1061 "/>
<text text-anchor="start" x="1121.5" y="-1044.4" font-family="Times Roman,serif" font-size="14.00">_id :BSON::ObjectId</text>
<text text-anchor="start" x="1121.5" y="-1028.4" font-family="Times Roman,serif" font-size="14.00">custom_data :Hash</text>
<text text-anchor="start" x="1121.5" y="-1012.4" font-family="Times Roman,serif" font-size="14.00">display_label :String</text>
<text text-anchor="start" x="1121.5" y="-996.4" font-family="Times Roman,serif" font-size="14.00">name :String</text>
<text text-anchor="start" x="1121.5" y="-980.4" font-family="Times Roman,serif" font-size="14.00">position :Numeric</text>
<text text-anchor="start" x="1121.5" y="-964.4" font-family="Times Roman,serif" font-size="14.00">required :Mongoid::Boolean</text>
<text text-anchor="start" x="1121.5" y="-948.4" font-family="Times Roman,serif" font-size="14.00">type_id :Object</text>
</g>
<!-- FeedbackFormTemplate -->
<g id="node10" class="node"><title>FeedbackFormTemplate</title>
<polyline fill="none" stroke="black" points="1134,-695 1274,-695 "/>
<path fill="none" stroke="black" d="M1274,-695C1280,-695 1286,-701 1286,-707"/>
<polyline fill="none" stroke="black" points="1286,-707 1286,-747 "/>
<path fill="none" stroke="black" d="M1286,-747C1286,-753 1280,-759 1274,-759"/>
<polyline fill="none" stroke="black" points="1274,-759 1134,-759 "/>
<path fill="none" stroke="black" d="M1134,-759C1128,-759 1122,-753 1122,-747"/>
<polyline fill="none" stroke="black" points="1122,-747 1122,-707 "/>
<path fill="none" stroke="black" d="M1122,-707C1122,-701 1128,-695 1134,-695"/>
<text text-anchor="middle" x="1204" y="-742.4" font-family="Times Roman,serif" font-size="14.00">FeedbackFormTemplate</text>
<polyline fill="none" stroke="black" points="1122,-735 1286,-735 "/>
<text text-anchor="start" x="1130" y="-718.4" font-family="Times Roman,serif" font-size="14.00">_id :BSON::ObjectId</text>
<text text-anchor="start" x="1130" y="-702.4" font-family="Times Roman,serif" font-size="14.00">name :String</text>
</g>
<!-- FeedbackAttributeTemplate&#45;&gt;FeedbackFormTemplate -->
<g id="edge10" class="edge"><title>FeedbackAttributeTemplate&#45;&gt;FeedbackFormTemplate</title>
<path fill="none" stroke="#4de1ed" d="M1202.74,-930.267C1202.1,-897.764 1201.66,-860.131 1202,-826 1202.19,-807.494 1202.57,-787.045 1202.95,-769.559"/>
<polygon fill="#4de1ed" stroke="#4de1ed" points="1202.75,-930.631 1198.46,-940.722 1202.85,-935.63 1202.96,-940.629 1202.96,-940.629 1202.96,-940.629 1202.85,-935.63 1207.46,-940.535 1202.75,-930.631 1202.75,-930.631"/>
<polygon fill="#4de1ed" stroke="#4de1ed" points="1202.96,-769.097 1207.69,-759.201 1203.07,-764.098 1203.19,-759.099 1203.19,-759.099 1203.19,-759.099 1203.07,-764.098 1198.69,-758.998 1202.96,-769.097 1202.96,-769.097"/>
</g>
<!-- ExpressoUser -->
<g id="node7" class="node"><title>ExpressoUser</title>
<polyline fill="none" stroke="black" points="432,-861 596,-861 "/>
<path fill="none" stroke="black" d="M596,-861C602,-861 608,-867 608,-873"/>
<polyline fill="none" stroke="black" points="608,-873 608,-1153 "/>
<path fill="none" stroke="black" d="M608,-1153C608,-1159 602,-1165 596,-1165"/>
<polyline fill="none" stroke="black" points="596,-1165 432,-1165 "/>
<path fill="none" stroke="black" d="M432,-1165C426,-1165 420,-1159 420,-1153"/>
<polyline fill="none" stroke="black" points="420,-1153 420,-873 "/>
<path fill="none" stroke="black" d="M420,-873C420,-867 426,-861 432,-861"/>
<text text-anchor="middle" x="514" y="-1148.4" font-family="Times Roman,serif" font-size="14.00">ExpressoUser</text>
<polyline fill="none" stroke="black" points="420,-1141 608,-1141 "/>
<text text-anchor="start" x="428" y="-1124.4" font-family="Times Roman,serif" font-size="14.00">_id :BSON::ObjectId</text>
<text text-anchor="start" x="428" y="-1108.4" font-family="Times Roman,serif" font-size="14.00">_type :String</text>
<text text-anchor="start" x="428" y="-1092.4" font-family="Times Roman,serif" font-size="14.00">blocked :Mongoid::Boolean</text>
<text text-anchor="start" x="428" y="-1076.4" font-family="Times Roman,serif" font-size="14.00">current_sign_in_at :Time</text>
<text text-anchor="start" x="428" y="-1060.4" font-family="Times Roman,serif" font-size="14.00">current_sign_in_ip :String</text>
<text text-anchor="start" x="428" y="-1044.4" font-family="Times Roman,serif" font-size="14.00">email :String</text>
<text text-anchor="start" x="428" y="-1028.4" font-family="Times Roman,serif" font-size="14.00">json_key :String</text>
<text text-anchor="start" x="428" y="-1012.4" font-family="Times Roman,serif" font-size="14.00">last_sign_in_at :Time</text>
<text text-anchor="start" x="428" y="-996.4" font-family="Times Roman,serif" font-size="14.00">last_sign_in_ip :String</text>
<text text-anchor="start" x="428" y="-980.4" font-family="Times Roman,serif" font-size="14.00">membership_ids :Array</text>
<text text-anchor="start" x="428" y="-964.4" font-family="Times Roman,serif" font-size="14.00">name :String</text>
<text text-anchor="start" x="428" y="-948.4" font-family="Times Roman,serif" font-size="14.00">organization_unit :String</text>
<text text-anchor="start" x="428" y="-932.4" font-family="Times Roman,serif" font-size="14.00">remember_created_at :Time</text>
<text text-anchor="start" x="428" y="-916.4" font-family="Times Roman,serif" font-size="14.00">sign_in_count :Integer</text>
<text text-anchor="start" x="428" y="-900.4" font-family="Times Roman,serif" font-size="14.00">telephone :String</text>
<text text-anchor="start" x="428" y="-884.4" font-family="Times Roman,serif" font-size="14.00">tine_key :String</text>
<text text-anchor="start" x="428" y="-868.4" font-family="Times Roman,serif" font-size="14.00">username :String</text>
</g>
<!-- ExpressoUser&#45;&gt;FeedbackTarget -->
<g id="edge12" class="edge"><title>ExpressoUser&#45;&gt;FeedbackTarget</title>
<path fill="none" stroke="#7ba9f7" d="M505.067,-852.938C504.942,-843.827 504.911,-834.798 505,-826 505.029,-823.139 505.062,-820.232 505.1,-817.297"/>
<ellipse fill="none" stroke="#7ba9f7" cx="505.135" cy="-856.964" rx="4" ry="4"/>
<polygon fill="#7ba9f7" stroke="#7ba9f7" points="505.101,-817.234 509.741,-807.298 505.171,-812.234 505.242,-807.235 505.242,-807.235 505.242,-807.235 505.171,-812.234 500.742,-807.171 505.101,-817.234 505.101,-817.234"/>
</g>
<!-- ExpressoUser&#45;&gt;FeedbackTarget -->
<g id="edge14" class="edge"><title>ExpressoUser&#45;&gt;FeedbackTarget</title>
<path fill="none" stroke="#9c6733" d="M510.02,-850.389C509.742,-839.047 509.469,-827.872 509.207,-817.158"/>
<polygon fill="#9c6733" stroke="#9c6733" points="510.03,-850.792 505.776,-860.899 510.152,-855.79 510.275,-860.789 510.275,-860.789 510.275,-860.789 510.152,-855.79 514.773,-860.679 510.03,-850.792 510.03,-850.792"/>
<polygon fill="#9c6733" stroke="#9c6733" points="509.204,-817.034 513.458,-806.927 509.081,-812.035 508.959,-807.037 508.959,-807.037 508.959,-807.037 509.081,-812.035 504.46,-807.147 509.204,-817.034 509.204,-817.034"/>
<text text-anchor="middle" x="551.5" y="-829.4" font-family="Times Roman,serif" font-size="14.00">memberships</text>
</g>
<!-- User -->
<g id="node8" class="node"><title>User</title>
<polyline fill="none" stroke="black" points="392,-369 556,-369 "/>
<path fill="none" stroke="black" d="M556,-369C562,-369 568,-375 568,-381"/>
<polyline fill="none" stroke="black" points="568,-381 568,-581 "/>
<path fill="none" stroke="black" d="M568,-581C568,-587 562,-593 556,-593"/>
<polyline fill="none" stroke="black" points="556,-593 392,-593 "/>
<path fill="none" stroke="black" d="M392,-593C386,-593 380,-587 380,-581"/>
<polyline fill="none" stroke="black" points="380,-581 380,-381 "/>
<path fill="none" stroke="black" d="M380,-381C380,-375 386,-369 392,-369"/>
<text text-anchor="middle" x="474" y="-576.4" font-family="Times Roman,serif" font-size="14.00">User</text>
<polyline fill="none" stroke="black" points="380,-569 568,-569 "/>
<text text-anchor="start" x="388" y="-552.4" font-family="Times Roman,serif" font-size="14.00">_id :BSON::ObjectId</text>
<text text-anchor="start" x="388" y="-536.4" font-family="Times Roman,serif" font-size="14.00">_type :String</text>
<text text-anchor="start" x="388" y="-520.4" font-family="Times Roman,serif" font-size="14.00">blocked :Mongoid::Boolean</text>
<text text-anchor="start" x="388" y="-504.4" font-family="Times Roman,serif" font-size="14.00">current_sign_in_at :Time</text>
<text text-anchor="start" x="388" y="-488.4" font-family="Times Roman,serif" font-size="14.00">current_sign_in_ip :String</text>
<text text-anchor="start" x="388" y="-472.4" font-family="Times Roman,serif" font-size="14.00">email :String</text>
<text text-anchor="start" x="388" y="-456.4" font-family="Times Roman,serif" font-size="14.00">last_sign_in_at :Time</text>
<text text-anchor="start" x="388" y="-440.4" font-family="Times Roman,serif" font-size="14.00">last_sign_in_ip :String</text>
<text text-anchor="start" x="388" y="-424.4" font-family="Times Roman,serif" font-size="14.00">membership_ids :Array</text>
<text text-anchor="start" x="388" y="-408.4" font-family="Times Roman,serif" font-size="14.00">remember_created_at :Time</text>
<text text-anchor="start" x="388" y="-392.4" font-family="Times Roman,serif" font-size="14.00">sign_in_count :Integer</text>
<text text-anchor="start" x="388" y="-376.4" font-family="Times Roman,serif" font-size="14.00">username :String</text>
</g>
<!-- User&#45;&gt;FeedbackTarget -->
<g id="edge16" class="edge"><title>User&#45;&gt;FeedbackTarget</title>
<path fill="none" stroke="#84b4dd" d="M484.497,-601.112C485.581,-610.223 486.749,-619.266 488,-628 488.413,-630.883 488.853,-633.809 489.313,-636.761"/>
<ellipse fill="none" stroke="#84b4dd" cx="484.027" cy="-597.068" rx="4.00001" ry="4.00001"/>
<polygon fill="#84b4dd" stroke="#84b4dd" points="489.352,-637.001 486.514,-647.593 490.154,-641.936 490.956,-646.871 490.956,-646.871 490.956,-646.871 490.154,-641.936 495.397,-646.15 489.352,-637.001 489.352,-637.001"/>
</g>
<!-- User&#45;&gt;FeedbackTarget -->
<g id="edge18" class="edge"><title>User&#45;&gt;FeedbackTarget</title>
<path fill="none" stroke="#201448" d="M490.433,-603.501C491.93,-614.663 493.428,-625.83 494.878,-636.635"/>
<polygon fill="#201448" stroke="#201448" points="490.389,-603.173 493.52,-592.664 489.724,-598.218 489.06,-593.262 489.06,-593.262 489.06,-593.262 489.724,-598.218 484.6,-593.86 490.389,-603.173 490.389,-603.173"/>
<polygon fill="#201448" stroke="#201448" points="494.911,-636.88 491.78,-647.389 495.575,-641.835 496.24,-646.791 496.24,-646.791 496.24,-646.791 495.575,-641.835 500.7,-646.192 494.911,-636.88 494.911,-636.88"/>
<text text-anchor="middle" x="535.5" y="-615.4" font-family="Times Roman,serif" font-size="14.00">memberships</text>
</g>
<!-- Ability -->
<g id="node9" class="node"><title>Ability</title>
<polygon fill="none" stroke="black" points="1314,-989 1314,-1037 1368,-1037 1368,-989 1314,-989"/>
<text text-anchor="middle" x="1341" y="-1020.4" font-family="Times Roman,serif" font-size="14.00">Ability</text>
<polyline fill="none" stroke="black" points="1314,-1013 1368,-1013 "/>
<text text-anchor="middle" x="1341" y="-996.4" font-family="Times Roman,serif" font-size="14.00"> </text>
</g>
<!-- FeedbackFormTemplate&#45;&gt;FeedbackAttributeTemplate -->
<g id="edge20" class="edge"><title>FeedbackFormTemplate&#45;&gt;FeedbackAttributeTemplate</title>
<path fill="none" stroke="#2a1554" d="M1204.14,-767.256C1204.29,-809.503 1204.52,-877.098 1204.71,-930.712"/>
<ellipse fill="none" stroke="#2a1554" cx="1204.13" cy="-763.157" rx="4" ry="4"/>
<polygon fill="#2a1554" stroke="#2a1554" points="1204.71,-930.83 1200.25,-940.846 1204.73,-935.83 1204.75,-940.83 1204.75,-940.83 1204.75,-940.83 1204.73,-935.83 1209.25,-940.814 1204.71,-930.83 1204.71,-930.83"/>
<text text-anchor="middle" x="1263" y="-829.4" font-family="Times Roman,serif" font-size="14.00">feedback_attributes</text>
</g>
<!-- FeedbackAttribute -->
<g id="node11" class="node"><title>FeedbackAttribute</title>
<polyline fill="none" stroke="black" points="722.5,-161 881.5,-161 "/>
<path fill="none" stroke="black" d="M881.5,-161C887.5,-161 893.5,-167 893.5,-173"/>
<polyline fill="none" stroke="black" points="893.5,-173 893.5,-293 "/>
<path fill="none" stroke="black" d="M893.5,-293C893.5,-299 887.5,-305 881.5,-305"/>
<polyline fill="none" stroke="black" points="881.5,-305 722.5,-305 "/>
<path fill="none" stroke="black" d="M722.5,-305C716.5,-305 710.5,-299 710.5,-293"/>
<polyline fill="none" stroke="black" points="710.5,-293 710.5,-173 "/>
<path fill="none" stroke="black" d="M710.5,-173C710.5,-167 716.5,-161 722.5,-161"/>
<text text-anchor="middle" x="802" y="-288.4" font-family="Times Roman,serif" font-size="14.00">FeedbackAttribute</text>
<polyline fill="none" stroke="black" points="710.5,-281 893.5,-281 "/>
<text text-anchor="start" x="718.5" y="-264.4" font-family="Times Roman,serif" font-size="14.00">_id :BSON::ObjectId</text>
<text text-anchor="start" x="718.5" y="-248.4" font-family="Times Roman,serif" font-size="14.00">custom_data :Hash</text>
<text text-anchor="start" x="718.5" y="-232.4" font-family="Times Roman,serif" font-size="14.00">display_label :String</text>
<text text-anchor="start" x="718.5" y="-216.4" font-family="Times Roman,serif" font-size="14.00">name :String</text>
<text text-anchor="start" x="718.5" y="-200.4" font-family="Times Roman,serif" font-size="14.00">position :Numeric</text>
<text text-anchor="start" x="718.5" y="-184.4" font-family="Times Roman,serif" font-size="14.00">required :Mongoid::Boolean</text>
<text text-anchor="start" x="718.5" y="-168.4" font-family="Times Roman,serif" font-size="14.00">type_id :Object</text>
</g>
<!-- FeedbackForm -->
<g id="node15" class="node"><title>FeedbackForm</title>
<polyline fill="none" stroke="black" points="668.5,-385 899.5,-385 "/>
<path fill="none" stroke="black" d="M899.5,-385C905.5,-385 911.5,-391 911.5,-397"/>
<polyline fill="none" stroke="black" points="911.5,-397 911.5,-565 "/>
<path fill="none" stroke="black" d="M911.5,-565C911.5,-571 905.5,-577 899.5,-577"/>
<polyline fill="none" stroke="black" points="899.5,-577 668.5,-577 "/>
<path fill="none" stroke="black" d="M668.5,-577C662.5,-577 656.5,-571 656.5,-565"/>
<polyline fill="none" stroke="black" points="656.5,-565 656.5,-397 "/>
<path fill="none" stroke="black" d="M656.5,-397C656.5,-391 662.5,-385 668.5,-385"/>
<text text-anchor="middle" x="784" y="-560.4" font-family="Times Roman,serif" font-size="14.00">FeedbackForm</text>
<polyline fill="none" stroke="black" points="656.5,-553 911.5,-553 "/>
<text text-anchor="start" x="664.5" y="-536.4" font-family="Times Roman,serif" font-size="14.00">_id :BSON::ObjectId</text>
<text text-anchor="start" x="664.5" y="-520.4" font-family="Times Roman,serif" font-size="14.00">_slugs :Array</text>
<text text-anchor="start" x="664.5" y="-504.4" font-family="Times Roman,serif" font-size="14.00">authentication_token :String</text>
<text text-anchor="start" x="664.5" y="-488.4" font-family="Times Roman,serif" font-size="14.00">deleted_at :Time</text>
<text text-anchor="start" x="664.5" y="-472.4" font-family="Times Roman,serif" font-size="14.00">detail_columns :Array</text>
<text text-anchor="start" x="664.5" y="-456.4" font-family="Times Roman,serif" font-size="14.00">grid_columns :Array</text>
<text text-anchor="start" x="664.5" y="-440.4" font-family="Times Roman,serif" font-size="14.00">name :String</text>
<text text-anchor="start" x="664.5" y="-424.4" font-family="Times Roman,serif" font-size="14.00">review_enabled :Mongoid::Boolean</text>
<text text-anchor="start" x="664.5" y="-408.4" font-family="Times Roman,serif" font-size="14.00">screenshot_enabled :Mongoid::Boolean</text>
<text text-anchor="start" x="664.5" y="-392.4" font-family="Times Roman,serif" font-size="14.00">feedback_target_id :Object</text>
</g>
<!-- FeedbackAttribute&#45;&gt;FeedbackForm -->
<g id="edge22" class="edge"><title>FeedbackAttribute&#45;&gt;FeedbackForm</title>
<path fill="none" stroke="#6e531e" d="M802.418,-315.434C801.369,-334.442 799.978,-354.923 798.397,-374.784"/>
<polygon fill="#6e531e" stroke="#6e531e" points="802.423,-315.326 807.443,-305.577 802.686,-310.333 802.949,-305.34 802.949,-305.34 802.949,-305.34 802.686,-310.333 798.456,-305.103 802.423,-315.326 802.423,-315.326"/>
<polygon fill="#6e531e" stroke="#6e531e" points="798.396,-374.795 793.097,-384.395 797.989,-379.778 797.582,-384.762 797.582,-384.762 797.582,-384.762 797.989,-379.778 802.067,-385.128 798.396,-374.795 798.396,-374.795"/>
</g>
<!-- FeedbackTarget&#45;&gt;Feedback -->
<g id="edge28" class="edge"><title>FeedbackTarget&#45;&gt;Feedback</title>
<path fill="none" stroke="#f072ad" d="M576.251,-639.541C578.016,-635.731 579.612,-631.878 581,-628 614.387,-534.718 615.85,-421.068 610.772,-339.665"/>
<ellipse fill="none" stroke="#f072ad" cx="574.431" cy="-643.224" rx="4.00002" ry="4.00002"/>
<polygon fill="#f072ad" stroke="#f072ad" points="610.753,-339.379 614.577,-329.101 610.42,-334.39 610.087,-329.401 610.087,-329.401 610.087,-329.401 610.42,-334.39 605.597,-329.701 610.753,-339.379 610.753,-339.379"/>
</g>
<!-- FeedbackTarget&#45;&gt;User -->
<g id="edge24" class="edge"><title>FeedbackTarget&#45;&gt;User</title>
<path fill="none" stroke="#0f1770" d="M428.088,-637.835C426.577,-634.596 425.206,-631.315 424,-628 421.085,-619.985 419.654,-611.707 419.385,-603.352"/>
<polygon fill="#0f1770" stroke="#0f1770" points="428.142,-637.943 428.69,-648.895 430.42,-642.394 432.697,-646.845 432.697,-646.845 432.697,-646.845 430.42,-642.394 436.703,-644.796 428.142,-637.943 428.142,-637.943"/>
<polygon fill="#0f1770" stroke="#0f1770" points="419.389,-603.133 424.11,-593.235 419.5,-598.134 419.611,-593.135 419.611,-593.135 419.611,-593.135 419.5,-598.134 415.112,-593.035 419.389,-603.133 419.389,-603.133"/>
<text text-anchor="middle" x="453" y="-615.4" font-family="Times Roman,serif" font-size="14.00">members</text>
</g>
<!-- FeedbackTarget&#45;&gt;FeedbackForm -->
<g id="edge26" class="edge"><title>FeedbackTarget&#45;&gt;FeedbackForm</title>
<path fill="none" stroke="#18f61c" d="M603.84,-641.443C608.969,-636.898 614.047,-632.395 619,-628 635.05,-613.757 651.964,-598.72 668.597,-583.916"/>
<ellipse fill="none" stroke="#18f61c" cx="600.794" cy="-644.141" rx="4.00002" ry="4.00002"/>
<polygon fill="#18f61c" stroke="#18f61c" points="668.746,-583.784 679.208,-580.496 672.481,-580.459 676.216,-577.135 676.216,-577.135 676.216,-577.135 672.481,-580.459 673.224,-573.773 668.746,-583.784 668.746,-583.784"/>
</g>
<!-- RegisteredUser -->
<g id="node13" class="node"><title>RegisteredUser</title>
<polyline fill="none" stroke="black" points="637.5,-877 814.5,-877 "/>
<path fill="none" stroke="black" d="M814.5,-877C820.5,-877 826.5,-883 826.5,-889"/>
<polyline fill="none" stroke="black" points="826.5,-889 826.5,-1137 "/>
<path fill="none" stroke="black" d="M826.5,-1137C826.5,-1143 820.5,-1149 814.5,-1149"/>
<polyline fill="none" stroke="black" points="814.5,-1149 637.5,-1149 "/>
<path fill="none" stroke="black" d="M637.5,-1149C631.5,-1149 625.5,-1143 625.5,-1137"/>
<polyline fill="none" stroke="black" points="625.5,-1137 625.5,-889 "/>
<path fill="none" stroke="black" d="M625.5,-889C625.5,-883 631.5,-877 637.5,-877"/>
<text text-anchor="middle" x="726" y="-1132.4" font-family="Times Roman,serif" font-size="14.00">RegisteredUser</text>
<polyline fill="none" stroke="black" points="625.5,-1125 826.5,-1125 "/>
<text text-anchor="start" x="633.5" y="-1108.4" font-family="Times Roman,serif" font-size="14.00">_id :BSON::ObjectId</text>
<text text-anchor="start" x="633.5" y="-1092.4" font-family="Times Roman,serif" font-size="14.00">_type :String</text>
<text text-anchor="start" x="633.5" y="-1076.4" font-family="Times Roman,serif" font-size="14.00">blocked :Mongoid::Boolean</text>
<text text-anchor="start" x="633.5" y="-1060.4" font-family="Times Roman,serif" font-size="14.00">current_sign_in_at :Time</text>
<text text-anchor="start" x="633.5" y="-1044.4" font-family="Times Roman,serif" font-size="14.00">current_sign_in_ip :String</text>
<text text-anchor="start" x="633.5" y="-1028.4" font-family="Times Roman,serif" font-size="14.00">email :String</text>
<text text-anchor="start" x="633.5" y="-1012.4" font-family="Times Roman,serif" font-size="14.00">encrypted_password :String</text>
<text text-anchor="start" x="633.5" y="-996.4" font-family="Times Roman,serif" font-size="14.00">last_sign_in_at :Time</text>
<text text-anchor="start" x="633.5" y="-980.4" font-family="Times Roman,serif" font-size="14.00">last_sign_in_ip :String</text>
<text text-anchor="start" x="633.5" y="-964.4" font-family="Times Roman,serif" font-size="14.00">membership_ids :Array</text>
<text text-anchor="start" x="633.5" y="-948.4" font-family="Times Roman,serif" font-size="14.00">remember_created_at :Time</text>
<text text-anchor="start" x="633.5" y="-932.4" font-family="Times Roman,serif" font-size="14.00">reset_password_sent_at :Time</text>
<text text-anchor="start" x="633.5" y="-916.4" font-family="Times Roman,serif" font-size="14.00">reset_password_token :String</text>
<text text-anchor="start" x="633.5" y="-900.4" font-family="Times Roman,serif" font-size="14.00">sign_in_count :Integer</text>
<text text-anchor="start" x="633.5" y="-884.4" font-family="Times Roman,serif" font-size="14.00">username :String</text>
</g>
<!-- RegisteredUser&#45;&gt;FeedbackTarget -->
<g id="edge30" class="edge"><title>RegisteredUser&#45;&gt;FeedbackTarget</title>
<path fill="none" stroke="#6398b9" d="M630.405,-870.134C619.421,-855.024 608.156,-840.057 597,-826 594.162,-822.424 591.229,-818.813 588.232,-815.194"/>
<ellipse fill="none" stroke="#6398b9" cx="632.749" cy="-873.375" rx="4.00002" ry="4.00002"/>
<polygon fill="#6398b9" stroke="#6398b9" points="588.01,-814.93 585.03,-804.376 584.797,-811.099 581.583,-807.269 581.583,-807.269 581.583,-807.269 584.797,-811.099 578.136,-810.161 588.01,-814.93 588.01,-814.93"/>
</g>
<!-- RegisteredUser&#45;&gt;FeedbackTarget -->
<g id="edge32" class="edge"><title>RegisteredUser&#45;&gt;FeedbackTarget</title>
<path fill="none" stroke="#98e674" d="M647.758,-868.175C638.022,-853.492 627.704,-839.159 617,-826 613.92,-822.213 610.691,-818.443 607.352,-814.708"/>
<polygon fill="#98e674" stroke="#98e674" points="647.956,-868.48 649.652,-879.314 650.689,-872.668 653.421,-876.855 653.421,-876.855 653.421,-876.855 650.689,-872.668 657.19,-874.396 647.956,-868.48 647.956,-868.48"/>
<polygon fill="#98e674" stroke="#98e674" points="607.124,-814.459 603.671,-804.051 603.74,-810.778 600.357,-807.096 600.357,-807.096 600.357,-807.096 603.74,-810.778 597.044,-810.141 607.124,-814.459 607.124,-814.459"/>
<text text-anchor="middle" x="669.5" y="-829.4" font-family="Times Roman,serif" font-size="14.00">memberships</text>
</g>
<!-- Comment&#45;&gt;Feedback -->
<g id="edge34" class="edge"><title>Comment&#45;&gt;Feedback</title>
<path fill="none" stroke="#da1a03" d="M605.334,-107.463C605.495,-113.676 605.609,-120.126 605.677,-126.674"/>
<polygon fill="#da1a03" stroke="#da1a03" points="605.328,-107.25 609.518,-97.116 605.174,-102.252 605.02,-97.2546 605.02,-97.2546 605.02,-97.2546 605.174,-102.252 600.522,-97.3932 605.328,-107.25 605.328,-107.25"/>
<polygon fill="#da1a03" stroke="#da1a03" points="605.678,-126.958 601.244,-136.988 605.711,-131.958 605.744,-136.958 605.744,-136.958 605.744,-136.958 605.711,-131.958 610.244,-136.929 605.678,-126.958 605.678,-126.958"/>
</g>
<!-- FeedbackForm&#45;&gt;Feedback -->
<g id="edge38" class="edge"><title>FeedbackForm&#45;&gt;Feedback</title>
<path fill="none" stroke="#ee4b3a" d="M707.401,-378.316C697.355,-364.849 687.052,-351.037 676.984,-337.541"/>
<ellipse fill="none" stroke="#ee4b3a" cx="709.818" cy="-381.556" rx="4.00002" ry="4.00002"/>
<polygon fill="#ee4b3a" stroke="#ee4b3a" points="676.73,-337.2 674.357,-326.493 673.74,-333.192 670.75,-329.184 670.75,-329.184 670.75,-329.184 673.74,-333.192 667.143,-331.875 676.73,-337.2 676.73,-337.2"/>
</g>
<!-- FeedbackForm&#45;&gt;FeedbackAttribute -->
<g id="edge36" class="edge"><title>FeedbackForm&#45;&gt;FeedbackAttribute</title>
<path fill="none" stroke="#57d89d" d="M784.899,-376.664C786.223,-356.221 787.851,-335.046 789.616,-315.438"/>
<ellipse fill="none" stroke="#57d89d" cx="784.64" cy="-380.77" rx="4" ry="4"/>
<polygon fill="#57d89d" stroke="#57d89d" points="789.628,-315.297 795.031,-305.754 790.089,-310.319 790.55,-305.34 790.55,-305.34 790.55,-305.34 790.089,-310.319 786.069,-304.925 789.628,-315.297 789.628,-315.297"/>
</g>
<!-- FeedbackAttributeModel -->
<g id="node16" class="node"><title>FeedbackAttributeModel</title>
<polyline fill="none" stroke="black" points="1397.5,-949 1556.5,-949 "/>
<path fill="none" stroke="black" d="M1556.5,-949C1562.5,-949 1568.5,-955 1568.5,-961"/>
<polyline fill="none" stroke="black" points="1568.5,-961 1568.5,-1065 "/>
<path fill="none" stroke="black" d="M1568.5,-1065C1568.5,-1071 1562.5,-1077 1556.5,-1077"/>
<polyline fill="none" stroke="black" points="1556.5,-1077 1397.5,-1077 "/>
<path fill="none" stroke="black" d="M1397.5,-1077C1391.5,-1077 1385.5,-1071 1385.5,-1065"/>
<polyline fill="none" stroke="black" points="1385.5,-1065 1385.5,-961 "/>
<path fill="none" stroke="black" d="M1385.5,-961C1385.5,-955 1391.5,-949 1397.5,-949"/>
<text text-anchor="middle" x="1477" y="-1060.4" font-family="Times Roman,serif" font-size="14.00">FeedbackAttributeModel</text>
<polyline fill="none" stroke="black" points="1385.5,-1053 1568.5,-1053 "/>
<text text-anchor="start" x="1393.5" y="-1036.4" font-family="Times Roman,serif" font-size="14.00">_id :BSON::ObjectId</text>
<text text-anchor="start" x="1393.5" y="-1020.4" font-family="Times Roman,serif" font-size="14.00">custom_data :Hash</text>
<text text-anchor="start" x="1393.5" y="-1004.4" font-family="Times Roman,serif" font-size="14.00">display_label :String</text>
<text text-anchor="start" x="1393.5" y="-988.4" font-family="Times Roman,serif" font-size="14.00">name :String</text>
<text text-anchor="start" x="1393.5" y="-972.4" font-family="Times Roman,serif" font-size="14.00">required :Mongoid::Boolean</text>
<text text-anchor="start" x="1393.5" y="-956.4" font-family="Times Roman,serif" font-size="14.00">type_id :Object</text>
</g>
</g>
</svg>
